<?xml version="1.0" encoding="utf-8"?>
<!-- Generator: Adobe Illustrator 16.0.0, SVG Export Plug-In . SVG Version: 6.00 Build 0)  -->
<!DOCTYPE svg PUBLIC "-//W3C//DTD SVG 1.1//EN" "http://www.w3.org/Graphics/SVG/1.1/DTD/svg11.dtd">
<svg version="1.1" id="Layer_1" xmlns="http://www.w3.org/2000/svg" xmlns:xlink="http://www.w3.org/1999/xlink" x="0px" y="0px"
	 width="432.594px" height="595.28px" viewBox="0 0 432.594 595.28" enable-background="new 0 0 432.594 595.28"
	 xml:space="preserve">
<g>
	<g>
		<path fill="#2b8cc4" d="M423.351,49.299H314.894H281.97C273.623,20.314,247.156,0,216.297,0s-57.324,20.314-65.673,49.299H117.7
			H9.243C4.138,49.299,0,53.437,0,58.542v527.495c0,5.106,4.139,9.243,9.243,9.243h414.107c5.105,0,9.243-4.138,9.243-9.243V58.542
			C432.594,53.436,428.456,49.299,423.351,49.299z M126.944,97.981V67.786h31.029c0.044,0,0.087-0.006,0.131-0.006
			c0.202-0.002,0.403-0.015,0.603-0.032c0.107-0.008,0.214-0.016,0.321-0.026c0.199-0.022,0.395-0.055,0.592-0.09
			c0.106-0.02,0.214-0.037,0.32-0.059c0.186-0.041,0.366-0.089,0.548-0.141c0.114-0.033,0.227-0.062,0.337-0.099
			c0.169-0.055,0.333-0.118,0.497-0.181c0.117-0.045,0.234-0.089,0.35-0.14c0.155-0.067,0.305-0.144,0.454-0.22
			c0.117-0.058,0.233-0.115,0.346-0.179c0.147-0.083,0.291-0.172,0.434-0.264c0.105-0.066,0.213-0.131,0.316-0.204
			c0.146-0.1,0.283-0.208,0.423-0.316c0.094-0.071,0.187-0.142,0.276-0.218c0.142-0.118,0.275-0.245,0.41-0.373
			c0.079-0.076,0.159-0.147,0.234-0.226c0.134-0.136,0.259-0.278,0.383-0.422c0.068-0.081,0.142-0.159,0.208-0.242
			c0.117-0.144,0.226-0.294,0.334-0.446c0.066-0.093,0.135-0.184,0.197-0.279c0.096-0.145,0.183-0.293,0.27-0.444
			c0.065-0.113,0.134-0.226,0.193-0.342c0.071-0.137,0.137-0.278,0.202-0.418c0.064-0.14,0.129-0.277,0.188-0.42
			c0.05-0.125,0.095-0.253,0.141-0.382c0.058-0.165,0.116-0.332,0.164-0.5c0.034-0.119,0.062-0.24,0.092-0.36
			c0.044-0.182,0.086-0.363,0.121-0.549c0.008-0.046,0.021-0.093,0.03-0.14c4.045-24.097,24.738-41.586,49.208-41.586
			c24.468,0,45.164,17.489,49.208,41.585c0.008,0.051,0.023,0.1,0.032,0.15c0.028,0.151,0.062,0.302,0.098,0.451
			c0.033,0.137,0.066,0.273,0.104,0.408c0.041,0.143,0.085,0.282,0.132,0.423c0.048,0.142,0.1,0.283,0.154,0.421
			c0.049,0.125,0.099,0.248,0.152,0.37c0.067,0.151,0.141,0.3,0.216,0.447c0.053,0.104,0.104,0.207,0.161,0.308
			c0.091,0.163,0.188,0.32,0.288,0.475c0.054,0.083,0.103,0.165,0.158,0.247c0.12,0.175,0.248,0.342,0.378,0.507
			c0.044,0.057,0.086,0.117,0.134,0.172c0.182,0.217,0.37,0.428,0.569,0.627c0.002,0.001,0.003,0.002,0.004,0.003
			c0.2,0.199,0.408,0.387,0.623,0.567c0.083,0.068,0.171,0.13,0.257,0.197c0.135,0.105,0.269,0.209,0.409,0.306
			c0.109,0.077,0.225,0.145,0.338,0.215c0.123,0.078,0.246,0.156,0.373,0.227c0.122,0.069,0.246,0.132,0.372,0.194
			c0.128,0.065,0.257,0.128,0.388,0.188c0.126,0.057,0.253,0.108,0.382,0.159c0.142,0.057,0.285,0.108,0.43,0.158
			c0.122,0.041,0.243,0.081,0.368,0.118c0.167,0.049,0.336,0.091,0.507,0.13c0.106,0.024,0.211,0.051,0.32,0.073
			c0.217,0.042,0.436,0.073,0.655,0.1c0.067,0.008,0.136,0.021,0.203,0.027c0.297,0.029,0.597,0.046,0.899,0.046
			c0.005,0,0.01-0.001,0.016-0.001h31.025v30.195v25.267H126.944V97.981z M117.7,141.734h197.194c5.105,0,9.243-4.138,9.243-9.243
			v-25.266h50.531v341.392h-84.424c-5.105,0-9.243,4.138-9.243,9.243v84.424H57.926V107.225h50.531v25.266
			C108.456,137.596,112.595,141.734,117.7,141.734z M361.596,467.104l-62.108,62.108v-62.108H361.596z M414.108,576.793H18.487
			V67.786h89.97v20.952H48.682c-5.105,0-9.243,4.138-9.243,9.243v453.546c0,5.106,4.139,9.243,9.243,9.243h241.562
			c0.305,0,0.609-0.017,0.911-0.045c0.14-0.015,0.273-0.04,0.412-0.06c0.16-0.023,0.323-0.042,0.481-0.074
			c0.158-0.03,0.309-0.074,0.464-0.114c0.138-0.035,0.277-0.065,0.412-0.105c0.15-0.046,0.296-0.103,0.444-0.156
			c0.138-0.049,0.274-0.095,0.411-0.149c0.138-0.058,0.271-0.125,0.405-0.188c0.139-0.065,0.279-0.127,0.414-0.2
			c0.129-0.068,0.251-0.147,0.377-0.224c0.133-0.08,0.269-0.155,0.398-0.243c0.137-0.09,0.265-0.191,0.396-0.29
			c0.11-0.083,0.223-0.159,0.33-0.247c0.221-0.181,0.432-0.371,0.634-0.572c0.014-0.016,0.028-0.026,0.043-0.04l93.667-93.667
			c0.013-0.013,0.021-0.025,0.035-0.038c0.202-0.205,0.395-0.417,0.577-0.639c0.088-0.107,0.164-0.22,0.247-0.33
			c0.099-0.132,0.201-0.261,0.292-0.396c0.087-0.132,0.163-0.268,0.245-0.403c0.074-0.123,0.15-0.245,0.22-0.372
			c0.074-0.14,0.138-0.283,0.204-0.425c0.062-0.131,0.127-0.26,0.184-0.394c0.059-0.14,0.104-0.281,0.155-0.423
			c0.051-0.143,0.106-0.285,0.151-0.432c0.043-0.143,0.074-0.285,0.108-0.429c0.038-0.148,0.079-0.296,0.109-0.448
			c0.034-0.168,0.054-0.335,0.077-0.505c0.019-0.13,0.043-0.259,0.057-0.391c0.029-0.305,0.047-0.611,0.046-0.917V97.981
			c0-5.106-4.14-9.243-9.243-9.243h-59.773V67.786h89.97v509.007H414.108z"/>
	</g>
</g>
<g>
	<g>
		<path fill="#2b8cc4" d="M216.297,177.475c-64.9,0-117.7,52.8-117.7,117.701c0,64.9,52.8,117.7,117.7,117.7s117.7-52.8,117.7-117.7
			C333.997,230.275,281.198,177.475,216.297,177.475z M216.297,394.389c-54.706,0-99.213-44.507-99.213-99.213
			c0-54.707,44.507-99.213,99.213-99.213s99.213,44.507,99.213,99.213C315.51,349.882,271.003,394.389,216.297,394.389z"/>
	</g>
</g>
<g>
	<g>
		<path fill="#2b8cc4" d="M272.131,246.734c-3.609-3.608-9.463-3.608-13.071,0l-79.736,79.738L156.28,303.43
			c-3.609-3.609-9.463-3.609-13.071,0c-3.61,3.61-3.61,9.463,0,13.072l29.579,29.579c1.805,1.805,4.17,2.707,6.535,2.707
			s4.732-0.902,6.535-2.707l86.272-86.272C275.741,256.197,275.741,250.346,272.131,246.734z"/>
	</g>
</g>
</svg>
